<?xml version="1.0" standalone="no"?>
<!DOCTYPE svg PUBLIC "-//W3C//DTD SVG 20010904//EN"
 "http://www.w3.org/TR/2001/REC-SVG-20010904/DTD/svg10.dtd">
<svg version="1.0" xmlns="http://www.w3.org/2000/svg"
 width="640.000000pt" height="640.000000pt" viewBox="0 0 640.000000 640.000000"
 preserveAspectRatio="xMidYMid meet">
<metadata>
Created by potrace 1.11, written by Peter Selinger 2001-2013
</metadata>
<g transform="translate(0.000000,640.000000) scale(0.100000,-0.100000)"
fill="#000000" stroke="none">
<path d="M5018 5444 c-3 -3 -64 -7 -135 -9 -71 -2 -147 -6 -168 -9 -22 -3 -70
-8 -107 -11 -37 -3 -76 -8 -88 -10 -12 -2 -48 -7 -79 -11 -31 -3 -65 -8 -76
-10 -10 -2 -35 -6 -55 -9 -20 -3 -47 -8 -60 -10 -14 -3 -45 -8 -70 -11 -25 -3
-48 -8 -51 -10 -3 -2 -19 -5 -35 -8 -64 -11 -90 -16 -114 -22 -14 -3 -34 -7
-45 -9 -11 -2 -31 -7 -45 -10 -14 -3 -36 -8 -50 -11 -14 -3 -54 -12 -90 -20
-36 -9 -72 -17 -80 -19 -8 -2 -71 -18 -140 -35 -69 -17 -136 -34 -150 -37 -50
-10 -55 -11 -55 -13 0 -1 -7 -3 -15 -5 -9 -1 -54 -12 -101 -24 -48 -12 -95
-24 -105 -26 -11 -2 -55 -14 -99 -25 -90 -24 -110 -29 -144 -36 -13 -3 -87
-20 -165 -39 -182 -44 -375 -84 -533 -111 -16 -2 -50 -9 -78 -14 -27 -5 -70
-12 -95 -15 -25 -3 -56 -8 -70 -10 -14 -2 -54 -6 -90 -9 -36 -4 -76 -8 -90
-10 -132 -22 -638 -23 -751 -1 -13 3 -44 7 -69 10 -39 5 -95 14 -182 29 -55
10 -200 46 -277 69 -81 25 -168 30 -228 14 -87 -23 -177 -103 -211 -188 l-21
-54 2 -1660 2 -1660 29 -58 c35 -68 88 -119 154 -149 26 -11 55 -25 66 -30 43
-22 312 -104 402 -122 10 -3 39 -9 64 -15 52 -11 87 -17 150 -26 25 -3 61 -8
80 -10 88 -12 134 -16 268 -20 79 -3 146 -6 150 -6 4 -1 9 -1 12 0 3 1 59 3
125 6 124 3 252 14 373 29 23 4 61 8 85 11 23 3 54 8 70 10 54 10 88 15 120
20 17 3 46 8 62 12 17 4 37 7 45 8 8 1 29 4 45 8 17 4 46 9 65 12 19 3 43 8
52 11 9 3 25 7 36 9 69 13 222 47 247 55 17 5 41 11 55 14 14 2 108 25 210 51
102 26 192 48 200 50 8 2 53 13 100 25 47 11 92 23 100 25 8 2 62 15 120 29
58 15 114 28 125 31 11 2 35 8 53 14 18 5 35 10 37 10 3 0 18 2 33 5 54 12 77
17 102 22 14 3 34 8 45 11 11 3 29 8 40 9 11 2 27 5 35 7 24 6 83 18 110 22
26 5 111 21 145 28 11 3 40 8 65 11 25 3 54 8 66 10 12 2 45 7 74 11 29 4 61
8 71 10 16 3 66 9 184 21 176 18 426 22 585 10 140 -10 259 -23 290 -31 8 -2
33 -7 55 -10 51 -7 59 -8 170 -34 113 -27 107 -25 184 -50 87 -27 189 -23 257
10 63 31 129 97 157 157 l22 47 0 1670 0 1670 -28 55 c-58 113 -110 148 -327
220 -36 12 -72 24 -80 27 -8 3 -19 7 -25 8 -5 2 -35 10 -66 19 -31 9 -67 19
-80 22 -70 15 -176 36 -194 39 -11 2 -33 6 -50 9 -92 16 -182 24 -363 31 -79
2 -147 7 -151 10 -5 2 -11 2 -13 -1z m452 -518 c25 -4 52 -9 60 -11 8 -2 31
-7 50 -10 19 -3 43 -8 53 -11 11 -3 29 -7 40 -9 12 -2 47 -11 77 -20 30 -9 60
-17 65 -19 75 -21 95 -28 99 -34 6 -10 7 -58 5 -175 0 -49 1 -90 3 -92 2 -2 1
-34 -2 -70 -3 -37 -3 -68 0 -70 3 -2 4 -22 2 -45 -3 -32 -8 -40 -21 -36 -17 4
-72 19 -81 21 -33 7 -118 47 -167 77 -151 94 -268 283 -287 464 l-6 50 33 -2
c17 -1 52 -5 77 -8z m-4885 -512 c11 -2 31 -6 45 -9 14 -3 40 -7 58 -10 18 -2
45 -6 60 -9 66 -13 233 -30 331 -35 24 -1 25 -6 7 -80 -9 -38 -63 -139 -98
-185 -52 -67 -198 -191 -198 -169 0 4 -4 3 -8 -3 -7 -11 -102 -53 -132 -59
-67 -13 -99 -18 -130 -19 -32 -1 -35 1 -37 29 0 17 -2 35 -3 40 0 6 -1 48 0
95 0 47 0 132 0 190 -1 58 -1 112 -1 120 1 8 1 40 1 71 l-1 57 43 -10 c24 -5
52 -11 63 -14z m2750 -267 c179 -31 376 -173 496 -357 108 -166 158 -341 164
-565 3 -154 -10 -248 -51 -375 -26 -78 -84 -203 -96 -208 -5 -2 -8 -10 -8 -18
0 -8 -4 -14 -8 -14 -5 0 -14 -10 -19 -22 -12 -24 -47 -69 -98 -122 -88 -93
-245 -182 -368 -209 -95 -21 -253 -16 -339 11 -296 93 -515 361 -589 722 -15
72 -18 305 -5 390 12 81 53 214 86 281 16 33 26 59 22 59 -4 0 -2 4 3 8 6 4
29 37 53 73 77 120 214 240 335 294 89 39 93 40 152 50 22 4 41 8 43 10 5 5
192 -2 227 -8z m2585 -1663 c0 -30 1 -61 1 -69 0 -22 -1 -116 -1 -192 -1 -122
0 -211 1 -220 4 -22 -2 -43 -11 -38 -11 7 -253 51 -322 59 -102 12 -174 20
-191 20 -13 0 -16 7 -13 26 2 14 5 26 6 28 2 1 3 5 5 10 14 50 64 142 104 192
35 44 55 63 116 115 40 34 159 92 220 108 85 21 83 22 85 -39z m-5325 -429
c87 -14 223 -76 287 -133 64 -56 148 -157 148 -177 0 -4 8 -19 18 -33 27 -40
53 -128 66 -228 4 -30 2 -31 -28 -29 -146 11 -344 50 -501 99 -5 1 -29 8 -52
15 -23 6 -44 15 -47 19 -6 10 -7 55 -6 172 1 47 0 90 -1 95 -1 6 -1 13 0 18 1
4 1 33 1 65 -1 93 0 114 6 123 4 8 26 7 109 -6z"/>
</g>
</svg>
